<?xml version="1.0" standalone="no"?>
<!DOCTYPE svg PUBLIC "-//W3C//DTD SVG 20010904//EN"
 "http://www.w3.org/TR/2001/REC-SVG-20010904/DTD/svg10.dtd">
<svg version="1.0" xmlns="http://www.w3.org/2000/svg"
 width="30.000000pt" height="30.000000pt" viewBox="0 0 30.000000 30.000000"
 preserveAspectRatio="xMidYMid meet">

<g transform="translate(0.000000,30.000000) scale(0.100000,-0.100000)"
fill="#000000" stroke="none">
<path d="M60 150 c0 -67 4 -110 10 -110 6 0 10 40 10 100 l0 100 53 0 c57 0
77 -12 77 -45 0 -32 -20 -45 -67 -45 -24 0 -43 -4 -43 -10 0 -5 12 -10 28 -10
22 0 31 -8 51 -45 13 -25 28 -45 32 -45 13 0 11 6 -11 49 l-19 38 24 22 c30
25 32 64 5 91 -16 16 -33 20 -85 20 l-65 0 0 -110z"/>
</g>
</svg>
